# xmcd
#
# Track frame offsets: 
#        150
#        12047
#        37209
#        62271
#        81384
#        100881
#        124876
#        140840
#        159488
#        175385
#        199647
#        218826
#        239556
#        264251
#        285464
#        302827
#
# Disc length: 4429 seconds
#
# Revision: 1
# Processed by: cddbd v1.5.2PL0 Copyright (c) Steve Scherf et al.
# Submitted via: ExactAudioCopy v0.99pb4
#
DISCID=e5114b10
DTITLE=Bruce Springsteen - Trenton, 11-21-05(Samuez version-Disc 1)
DYEAR=2005
DGENRE=Rock and Roll
TTITLE0=Rumble
TTITLE1=Born In The USA
TTITLE2=Devils And Dust
TTITLE3=Atlantic City
TTITLE4=Long Time Comin'
TTITLE5=Fade Away
TTITLE6=Meeting Across The River
TTITLE7=It's Hard to be a Saint In The City
TTITLE8=State Trooper
TTITLE9=Nebraska
TTITLE10=All The Way Home
TTITLE11=One Step Up
TTITLE12=Reno
TTITLE13=Two For The Road
TTITLE14=Hey Santa Ana
TTITLE15=Drive All Night
EXTD=
EXTT0=
EXTT1=
EXTT2=
EXTT3=
EXTT4=
EXTT5=
EXTT6=
EXTT7=
EXTT8=
EXTT9=
EXTT10=
EXTT11=
EXTT12=
EXTT13=
EXTT14=
EXTT15=
PLAYORDER=
